<svg xmlns="http://www.w3.org/2000/svg" viewBox="0 0 772 250"><path fill="#aa1f6a" d="M0 0h772v250h-772z"/><path d="M678.86 145h-7.86v-8a2 2 0 0 0-4 0v8h-8.14a2 2 0 0 0 0 4h8.14v8a2 2 0 0 0 4 0v-8h7.86a2 2 0 0 0 0-4zm-10-24a26 26 0 1 0 26 26 26 26 0 0 0-26-26zm0 48a22 22 0 1 1 22-22 22 22 0 0 1-22 22zm-28-8h-37.86v-80h40v18a1.88 1.88 0 0 0 1.86 2h18.14v14a2 2 0 0 0 4 0v-16a2.36 2.36 0 0 0-.7-1.42l-20-20a2.05 2.05 0 0 0-1.43-.59h-44a1.88 1.88 0 0 0-1.87 2.01v84a1.88 1.88 0 0 0 1.86 2h40a2 2 0 0 0 0-4zm6.14-77.17l13 13.17h-13v-13.17zm-15.56 52.59a2 2 0 0 0 2.83 0l12-12a2 2 0 0 0 0-2.83l-12-12a2 2 0 0 0-2.83 2.83l10.56 10.58-10.59 10.59a2 2 0 0 0 .03 2.82zm-9.17-26.83a2 2 0 0 0-2.83 0l-12 12a2 2 0 0 0 0 2.83l12 12a2 2 0 0 0 2.83-2.83l-10.59-10.59 10.59-10.59a2 2 0 0 0 0-2.82z" fill="#fff"/></svg>
