<svg xmlns="http://www.w3.org/2000/svg" viewBox="0 0 128 128"><path fill="#aa1f6a" d="M0 0h128v128h-128z"/><path d="M80 74h-4v-4a1 1 0 0 0-2 0v4h-4a1 1 0 0 0 0 2h4v4a1 1 0 0 0 2 0v-4h4a1 1 0 0 0 0-2zm-5-12a13 13 0 1 0 13 13 13 13 0 0 0-13-13zm0 24a11 11 0 1 1 11-11 11 11 0 0 1-11 11zm-14-4h-19v-40h20v9a1 1 0 0 0 1 1h9v7a1 1 0 0 0 2 0v-8a1 1 0 0 0-.29-.71l-10-10a1 1 0 0 0-.71-.29h-22a1 1 0 0 0-1 1v42a1 1 0 0 0 1 1h20a1 1 0 0 0 0-2zm3-38.59l6.59 6.59h-6.59v-6.59zm-7.71 26.3a1 1 0 0 0 1.41 0l6-6a1 1 0 0 0 0-1.41l-6-6a1 1 0 0 0-1.41 1.41l5.3 5.29-5.29 5.29a1 1 0 0 0-.01 1.42zm-4.58-13.42a1 1 0 0 0-1.41 0l-6 6a1 1 0 0 0 0 1.41l6 6a1 1 0 0 0 1.41-1.41l-5.3-5.29 5.29-5.29a1 1 0 0 0 .01-1.42z" fill="#fff"/></svg>
