<svg id="Layer_1" data-name="Layer 1" xmlns="http://www.w3.org/2000/svg" viewBox="0 0 128 128"><title>ec-assets</title><rect width="128" height="128" fill="#aa1f6a"/><path d="M80,74H76V70a1,1,0,0,0-2,0v4H70a1,1,0,0,0,0,2h4v4a1,1,0,0,0,2,0V76h4A1,1,0,0,0,80,74ZM75,62A13,13,0,1,0,88,75,13,13,0,0,0,75,62Zm0,24A11,11,0,1,1,86,75,11,11,0,0,1,75,86ZM61,82H42V42H62v9a1,1,0,0,0,1,1h9v7a1,1,0,0,0,2,0V51a1,1,0,0,0-.29-0.71l-10-10A1,1,0,0,0,63,40H41a1,1,0,0,0-1,1V83a1,1,0,0,0,1,1H61A1,1,0,0,0,61,82Zm3-38.59L70.59,50H64V43.41ZM56.29,69.71a1,1,0,0,0,1.41,0l6-6a1,1,0,0,0,0-1.41l-6-6a1,1,0,0,0-1.41,1.41L61.59,63l-5.29,5.29A1,1,0,0,0,56.29,69.71ZM51.71,56.29a1,1,0,0,0-1.41,0l-6,6a1,1,0,0,0,0,1.41l6,6a1,1,0,0,0,1.41-1.41L46.41,63l5.29-5.29A1,1,0,0,0,51.71,56.29Z" fill="#fff"/></svg>