<svg id="Layer_1" data-name="Layer 1" xmlns="http://www.w3.org/2000/svg" viewBox="0 0 772 250"><title>ec-assets</title><rect width="772" height="250" fill="#aa1f6a"/><path d="M678.86,145H671v-8a2,2,0,0,0-4,0v8h-8.14a2,2,0,0,0,0,4H667v8a2,2,0,0,0,4,0v-8h7.86A2,2,0,0,0,678.86,145Zm-10-24a26,26,0,1,0,26,26A26,26,0,0,0,668.86,121Zm0,48a22,22,0,1,1,22-22A22,22,0,0,1,668.86,169Zm-28-8H603V81h40V99a1.88,1.88,0,0,0,1.86,2H663v14a2,2,0,0,0,4,0V99a2.36,2.36,0,0,0-.7-1.42l-20-20a2.05,2.05,0,0,0-1.43-.59h-44A1.88,1.88,0,0,0,599,79v84a1.88,1.88,0,0,0,1.86,2h40A2,2,0,0,0,640.86,161ZM647,83.83L660,97H647V83.83Zm-15.56,52.59a2,2,0,0,0,2.83,0l12-12a2,2,0,0,0,0-2.83l-12-12a2,2,0,0,0-2.83,2.83L642,123l-10.59,10.59A2,2,0,0,0,631.44,136.41Zm-9.17-26.83a2,2,0,0,0-2.83,0l-12,12a2,2,0,0,0,0,2.83l12,12a2,2,0,0,0,2.83-2.83L611.68,123l10.59-10.59A2,2,0,0,0,622.27,109.59Z" fill="#fff"/></svg>